<?xml version="1.0" encoding="utf-8"?>
<!-- Generator: Adobe Illustrator 23.0.3, SVG Export Plug-In . SVG Version: 6.00 Build 0)  -->
<svg version="1.1" id="Layer_1" xmlns="http://www.w3.org/2000/svg" xmlns:xlink="http://www.w3.org/1999/xlink" x="0px" y="0px"
	 viewBox="0 0 566.93 566.93" style="enable-background:new 0 0 566.93 566.93;" xml:space="preserve">
<style type="text/css">
	.st0{fill:#EA3A5A;}
	.st1{fill:#23006A;}
	.st2{fill:none;stroke:#EA3A5A;stroke-width:7;stroke-miterlimit:10;}
	.st3{fill:none;stroke:#EA3A5A;stroke-width:6;stroke-miterlimit:10;}
</style>
<path class="st0" d="M477.39,217.2l-3.32-3.32c-2.66-2.66-7.69-4.74-11.45-4.74h-60.04v-67.42h0.6c3.12,0,5.67-2.55,5.67-5.67v-5.67
	c0-3.12-2.55-5.67-5.67-5.67H219.24v97.98l31.23,23.48c1.25,0.94,2.27,2.98,2.27,4.54v42.47c0,0.29-0.06,0.57-0.14,0.83h0.14v57.06
	c0,3.12-2.55,5.67-5.67,5.67h-64.16c-3.12,0-5.67-2.55-5.67-5.67v-57.06h0.14c-0.08-0.27-0.14-0.54-0.14-0.83V250.7
	c0-1.56,1.02-3.6,2.27-4.54l31.23-23.48v-97.98h-93.21c-3.12,0-5.67,2.55-5.67,5.67v5.67c0,3.12,2.55,5.67,5.67,5.67h0.6v359.06
	c0,15.91,12.94,28.85,28.85,28.85h226.77c15.91,0,28.85-12.94,28.85-28.85v-77.8h45.87c3.76,0,8.79-2.08,11.45-4.74l17.49-17.5
	c2.66-2.66,4.74-7.69,4.74-11.45V228.65C482.13,224.89,480.05,219.86,477.39,217.2z M465.8,383.63c0,2.45-1.55,6.1-3.32,7.81
	l-11.68,11.28c-1.79,1.73-5.54,3.26-8.03,3.28l-40.18,0.29V225.48h60.04c1.75,0,3.17,1.42,3.17,3.17V383.63z"/>
<path class="st0" d="M505.7,425.74"/>
<path class="st0" d="M515.08,381.87"/>
<g>
	<path class="st0" d="M364.98,543.2c0,3.12-2.55,5.67-5.67,5.67H161.4c-3.12,0-5.67-2.55-5.67-5.67v-5.67
		c0-3.12,2.55-5.67,5.67-5.67h197.91c3.12,0,5.67,2.55,5.67,5.67V543.2z"/>
</g>
<path class="st1" d="M481.4,400.24"/>
<path class="st1" d="M450.28,427.49"/>
<g>
	<path class="st0" d="M226.19,97.72c-2.14,2.27-2.03,5.88,0.24,8.01c2.27,2.14,5.88,2.03,8.01-0.24l71.15-75.54
		c2.14-2.27,2.03-5.88-0.24-8.01l0,0c-2.27-2.14-5.88-2.03-8.01,0.24L226.19,97.72z"/>
	<path class="st2" d="M226.19,97.72c-2.14,2.27-2.03,5.88,0.24,8.01c2.27,2.14,5.88,2.03,8.01-0.24l71.15-75.54
		c2.14-2.27,2.03-5.88-0.24-8.01l0,0c-2.27-2.14-5.88-2.03-8.01,0.24L226.19,97.72z"/>
</g>
<g>
	<path class="st0" d="M288.73,92.2c-2.14,2.27-2.03,5.88,0.24,8.01l0,0c2.27,2.14,5.88,2.03,8.01-0.24l34.75-36.89
		c2.14-2.27,2.03-5.88-0.24-8.01s-5.88-2.03-8.01,0.24L288.73,92.2z"/>
	<path class="st3" d="M288.73,92.2c-2.14,2.27-2.03,5.88,0.24,8.01l0,0c2.27,2.14,5.88,2.03,8.01-0.24l34.75-36.89
		c2.14-2.27,2.03-5.88-0.24-8.01s-5.88-2.03-8.01,0.24L288.73,92.2z"/>
</g>
</svg>
