<?xml version="1.0" encoding="utf-8"?>
<!-- Generator: Adobe Illustrator 23.0.3, SVG Export Plug-In . SVG Version: 6.00 Build 0)  -->
<svg version="1.1" id="Layer_1" xmlns="http://www.w3.org/2000/svg" xmlns:xlink="http://www.w3.org/1999/xlink" x="0px" y="0px"
	 viewBox="0 0 566.9 566.9" style="enable-background:new 0 0 566.9 566.9;" xml:space="preserve">
<style type="text/css">
	.st0{fill:#FFFFFF;stroke:#EA3A5A;stroke-width:17;stroke-miterlimit:10;}
	.st1{fill:#EA3A5A;}
	.st2{fill:#23006A;}
	.st3{fill:none;stroke:#EA3A5A;stroke-width:7;stroke-miterlimit:10;}
	.st4{fill:none;stroke:#EA3A5A;stroke-width:6;stroke-miterlimit:10;}
</style>
<circle class="st0" cx="283.5" cy="283.5" r="272.5"/>
<g>
	<path class="st1" d="M467.2,208.9l-3-3c-2.4-2.4-7-4.3-10.4-4.3h-54.5v-61.2h0.5c2.8,0,5.2-2.3,5.2-5.2V130c0-2.8-2.3-5.2-5.2-5.2
		H232.8v89l28.4,21.3c1.1,0.9,2.1,2.7,2.1,4.1v38.6c0,0.3-0.1,0.5-0.1,0.8h0.1v51.8c0,2.8-2.3,5.2-5.2,5.2h-58.3
		c-2.8,0-5.2-2.3-5.2-5.2v-51.8h0.1c-0.1-0.2-0.1-0.5-0.1-0.8v-38.6c0-1.4,0.9-3.3,2.1-4.1l28.4-21.3v-89h-84.7
		c-2.8,0-5.2,2.3-5.2,5.2v5.2c0,2.8,2.3,5.2,5.2,5.2h0.5v326.1c0,14.5,11.8,26.2,26.2,26.2h206c14.5,0,26.2-11.8,26.2-26.2v-70.7
		H441c3.4,0,8-1.9,10.4-4.3l15.9-15.9c2.4-2.4,4.3-7,4.3-10.4V219.3C471.6,215.9,469.7,211.3,467.2,208.9z M456.7,360.1
		c0,2.2-1.4,5.5-3,7.1l-10.6,10.3c-1.6,1.6-5,3-7.3,3l-36.5,0.3V216.4h54.5c1.6,0,2.9,1.3,2.9,2.9L456.7,360.1L456.7,360.1z"/>
	<path class="st1" d="M493,398.3"/>
	<path class="st1" d="M501.5,358.5"/>
	<g>
		<path class="st1" d="M365.1,504.3c0,3.2-2.6,5.8-5.8,5.8H180.9c-3.2,0-5.8-2.6-5.8-5.8v-3.8c0-3.2,2.6-5.8,5.8-5.8h178.4
			c3.2,0,5.8,2.6,5.8,5.8L365.1,504.3L365.1,504.3z"/>
	</g>
	<path class="st2" d="M470.9,375.2"/>
	<path class="st2" d="M442.6,399.9"/>
	<g>
		<path class="st1" d="M239.6,99.9c-2.2,2.3-2.3,5.8-0.2,7.8c2.1,2,5.5,1.6,7.7-0.7l63.7-67.6c2.2-2.3,2.3-5.8,0.2-7.8
			c-2.1-1.9-5.5-1.6-7.7,0.7L239.6,99.9z"/>
		<path class="st3" d="M239.6,99.9c-2.2,2.3-2.3,5.8-0.2,7.8c2.1,2,5.5,1.6,7.7-0.7l63.7-67.6c2.2-2.3,2.3-5.8,0.2-7.8
			c-2.1-1.9-5.5-1.6-7.7,0.7L239.6,99.9z"/>
	</g>
	<g>
		<path class="st1" d="M296.4,94.9c-2.2,2.3-2.3,5.8-0.2,7.8c2.1,2,5.5,1.6,7.7-0.7l30.6-32.5c2.2-2.3,2.3-5.8,0.2-7.8
			c-2.1-2-5.5-1.6-7.7,0.7L296.4,94.9z"/>
		<path class="st4" d="M296.4,94.9c-2.2,2.3-2.3,5.8-0.2,7.8c2.1,2,5.5,1.6,7.7-0.7l30.6-32.5c2.2-2.3,2.3-5.8,0.2-7.8
			c-2.1-2-5.5-1.6-7.7,0.7L296.4,94.9z"/>
	</g>
</g>
</svg>
